solid OpenSCAD_Model
  facet normal -0.885371 -0.464885 -0
    outer loop
      vertex -25.384 -34.957 0
      vertex -24.494 -36.652 0
      vertex -25.384 -34.957 3.2
    endloop
  endfacet
  facet normal -0.885371 -0.464885 0
    outer loop
      vertex -25.384 -34.957 3.2
      vertex -24.494 -36.652 0
      vertex -24.494 -36.652 3.2
    endloop
  endfacet
  facet normal -0 -0 -1
    outer loop
      vertex -25.384 -34.957 0
      vertex -25.384 34.957 0
      vertex -24.494 -36.652 0
    endloop
  endfacet
  facet normal 0 0 -1
    outer loop
      vertex -24.494 -36.652 0
      vertex -25.384 34.957 0
      vertex -24.494 36.652 0
    endloop
  endfacet
  facet normal 0 -0 -1
    outer loop
      vertex -24.494 -36.652 0
      vertex -24.494 36.652 0
      vertex -22.918 37.74 0
    endloop
  endfacet
  facet normal 0 -0 -1
    outer loop
      vertex -22.5 32.5 0
      vertex -22.918 37.74 0
      vertex -21.018 37.971 0
    endloop
  endfacet
  facet normal 0 -0 -1
    outer loop
      vertex -18.2322 34.2678 0
      vertex -21.018 37.971 0
      vertex 21.982 37.971 0
    endloop
  endfacet
  facet normal -0 0 -1
    outer loop
      vertex 20.5 35 0
      vertex 23.772 37.292 0
      vertex 22.2678 34.2678 0
    endloop
  endfacet
  facet normal 0 0 -1
    outer loop
      vertex 22.2678 30.7322 0
      vertex 25.042 35.859 0
      vertex 25.5 34 0
    endloop
  endfacet
  facet normal -0 0 -1
    outer loop
      vertex 23 -32.5 0
      vertex 25.5 34 0
      vertex 25.5 -34 0
    endloop
  endfacet
  facet normal -0 0 -1
    outer loop
      vertex 20.5 -35 0
      vertex 25.5 -34 0
      vertex 25.042 -35.859 0
    endloop
  endfacet
  facet normal -0 0 -1
    outer loop
      vertex -24.494 -36.652 0
      vertex 25.042 -35.859 0
      vertex 23.772 -37.292 0
    endloop
  endfacet
  facet normal 0 0 -1
    outer loop
      vertex -24.494 -36.652 0
      vertex 23.772 -37.292 0
      vertex 21.982 -37.971 0
    endloop
  endfacet
  facet normal 0 0 -1
    outer loop
      vertex -24.494 -36.652 0
      vertex 21.982 -37.971 0
      vertex -21.018 -37.971 0
    endloop
  endfacet
  facet normal 0 0 -1
    outer loop
      vertex -24.494 -36.652 0
      vertex -21.018 -37.971 0
      vertex -22.918 -37.74 0
    endloop
  endfacet
  facet normal 0 0 -1
    outer loop
      vertex -24.494 -36.652 0
      vertex -21.7678 -34.2678 0
      vertex -20 -35 0
    endloop
  endfacet
  facet normal 0 0 -1
    outer loop
      vertex 20.5 -35 0
      vertex -24.494 -36.652 0
      vertex 18.7322 -34.2678 0
    endloop
  endfacet
  facet normal -0 0 -1
    outer loop
      vertex -18.2322 -30.7322 0
      vertex 25.5 34 0
      vertex -17.5 -32.5 0
    endloop
  endfacet
  facet normal -0 0 -1
    outer loop
      vertex -20 -30 0
      vertex 25.5 34 0
      vertex -18.2322 -30.7322 0
    endloop
  endfacet
  facet normal 0 0 -1
    outer loop
      vertex 20.5 30 0
      vertex -20 -30 0
      vertex -21.7678 -30.7322 0
    endloop
  endfacet
  facet normal 0 0 -1
    outer loop
      vertex -20 30 0
      vertex -21.7678 -30.7322 0
      vertex -22.5 -32.5 0
    endloop
  endfacet
  facet normal 0 0 -1
    outer loop
      vertex -24.494 -36.652 0
      vertex -22.918 37.74 0
      vertex -22.5 32.5 0
    endloop
  endfacet
  facet normal 0 -0 -1
    outer loop
      vertex -21.7678 34.2678 0
      vertex -22.5 32.5 0
      vertex -21.018 37.971 0
    endloop
  endfacet
  facet normal 0 0 -1
    outer loop
      vertex -24.494 -36.652 0
      vertex -22.5 32.5 0
      vertex -21.7678 30.7322 0
    endloop
  endfacet
  facet normal -0 -0 -1
    outer loop
      vertex -20 35 0
      vertex -21.018 37.971 0
      vertex -18.2322 34.2678 0
    endloop
  endfacet
  facet normal 0 -0 -1
    outer loop
      vertex 18.7322 34.2678 0
      vertex -20 30 0
      vertex 21.982 37.971 0
    endloop
  endfacet
  facet normal 0 0 -1
    outer loop
      vertex -21.7678 34.2678 0
      vertex -21.018 37.971 0
      vertex -20 35 0
    endloop
  endfacet
  facet normal 0 0 -1
    outer loop
      vertex -20 30 0
      vertex -18.2322 30.7322 0
      vertex 21.982 37.971 0
    endloop
  endfacet
  facet normal 0 0 -1
    outer loop
      vertex -18.2322 30.7322 0
      vertex -17.5 32.5 0
      vertex 21.982 37.971 0
    endloop
  endfacet
  facet normal 0 -0 -1
    outer loop
      vertex -17.5 32.5 0
      vertex -18.2322 34.2678 0
      vertex 21.982 37.971 0
    endloop
  endfacet
  facet normal 0 0 -1
    outer loop
      vertex 18.7322 -34.2678 0
      vertex -17.5 -32.5 0
      vertex 18 -32.5 0
    endloop
  endfacet
  facet normal 0 0 -1
    outer loop
      vertex 18.7322 -34.2678 0
      vertex -20 -35 0
      vertex -18.2322 -34.2678 0
    endloop
  endfacet
  facet normal -0 0 -1
    outer loop
      vertex -17.5 -32.5 0
      vertex 25.5 34 0
      vertex 18 -32.5 0
    endloop
  endfacet
  facet normal 0 0 -1
    outer loop
      vertex -24.494 -36.652 0
      vertex -20 -35 0
      vertex 18.7322 -34.2678 0
    endloop
  endfacet
  facet normal -0 0 -1
    outer loop
      vertex 22.2678 -34.2678 0
      vertex 25.5 -34 0
      vertex 20.5 -35 0
    endloop
  endfacet
  facet normal 0 0 -1
    outer loop
      vertex -24.494 -36.652 0
      vertex 20.5 -35 0
      vertex 25.042 -35.859 0
    endloop
  endfacet
  facet normal 0 0 -1
    outer loop
      vertex 23 -32.5 0
      vertex 25.5 -34 0
      vertex 22.2678 -34.2678 0
    endloop
  endfacet
  facet normal -0 0 -1
    outer loop
      vertex 22.2678 -30.7322 0
      vertex 25.5 34 0
      vertex 23 -32.5 0
    endloop
  endfacet
  facet normal 0 0 -1
    outer loop
      vertex 18.7322 30.7322 0
      vertex -21.7678 -30.7322 0
      vertex 18 32.5 0
    endloop
  endfacet
  facet normal -0 0 -1
    outer loop
      vertex 20.5 -30 0
      vertex 25.5 34 0
      vertex 22.2678 -30.7322 0
    endloop
  endfacet
  facet normal 0 0 -1
    outer loop
      vertex 18.7322 -30.7322 0
      vertex 25.5 34 0
      vertex 20.5 -30 0
    endloop
  endfacet
  facet normal 0 0 -1
    outer loop
      vertex 18 -32.5 0
      vertex 25.5 34 0
      vertex 18.7322 -30.7322 0
    endloop
  endfacet
  facet normal 0 0 -1
    outer loop
      vertex -21.7678 -30.7322 0
      vertex -20 30 0
      vertex 18 32.5 0
    endloop
  endfacet
  facet normal 0 0 -1
    outer loop
      vertex 18.7322 34.2678 0
      vertex 21.982 37.971 0
      vertex 20.5 35 0
    endloop
  endfacet
  facet normal 0 0 -1
    outer loop
      vertex 20.5 35 0
      vertex 21.982 37.971 0
      vertex 23.772 37.292 0
    endloop
  endfacet
  facet normal -0 0 -1
    outer loop
      vertex 23 32.5 0
      vertex 25.042 35.859 0
      vertex 22.2678 30.7322 0
    endloop
  endfacet
  facet normal 0 0 -1
    outer loop
      vertex 22.2678 30.7322 0
      vertex -20 -30 0
      vertex 20.5 30 0
    endloop
  endfacet
  facet normal 0 -0 -1
    outer loop
      vertex 18 32.5 0
      vertex -20 30 0
      vertex 18.7322 34.2678 0
    endloop
  endfacet
  facet normal 0 0 -1
    outer loop
      vertex -21.7678 -34.2678 0
      vertex -24.494 -36.652 0
      vertex -22.5 -32.5 0
    endloop
  endfacet
  facet normal 0 0 -1
    outer loop
      vertex -20 30 0
      vertex -22.5 -32.5 0
      vertex -24.494 -36.652 0
    endloop
  endfacet
  facet normal 0 0 -1
    outer loop
      vertex -20 30 0
      vertex -24.494 -36.652 0
      vertex -21.7678 30.7322 0
    endloop
  endfacet
  facet normal 0 0 -1
    outer loop
      vertex 18.7322 -34.2678 0
      vertex -18.2322 -34.2678 0
      vertex -17.5 -32.5 0
    endloop
  endfacet
  facet normal -0 0 -1
    outer loop
      vertex 22.2678 34.2678 0
      vertex 25.042 35.859 0
      vertex 23 32.5 0
    endloop
  endfacet
  facet normal 0 0 -1
    outer loop
      vertex 22.2678 34.2678 0
      vertex 23.772 37.292 0
      vertex 25.042 35.859 0
    endloop
  endfacet
  facet normal 0 0 -1
    outer loop
      vertex -20 -30 0
      vertex 22.2678 30.7322 0
      vertex 25.5 34 0
    endloop
  endfacet
  facet normal 0 0 -1
    outer loop
      vertex 20.5 30 0
      vertex -21.7678 -30.7322 0
      vertex 18.7322 30.7322 0
    endloop
  endfacet
  facet normal -1 -0 -0
    outer loop
      vertex -25.384 -34.957 0
      vertex -25.384 -34.957 3.2
      vertex -25.384 34.957 0
    endloop
  endfacet
  facet normal -1 0 0
    outer loop
      vertex -25.384 34.957 0
      vertex -25.384 -34.957 3.2
      vertex -25.384 34.957 3.2
    endloop
  endfacet
  facet normal 0 -0 1
    outer loop
      vertex -25.384 34.957 3.2
      vertex -25.384 -34.957 3.2
      vertex -24.494 -36.652 3.2
    endloop
  endfacet
  facet normal -0 0 1
    outer loop
      vertex -22.5 -32.5 3.2
      vertex -25.384 34.957 3.2
      vertex -22.918 -37.74 3.2
    endloop
  endfacet
  facet normal 0 0 1
    outer loop
      vertex -22.918 -37.74 3.2
      vertex -25.384 34.957 3.2
      vertex -24.494 -36.652 3.2
    endloop
  endfacet
  facet normal 0 0 1
    outer loop
      vertex -18.2322 -34.2678 3.2
      vertex -20 -35 3.2
      vertex -21.018 -37.971 3.2
    endloop
  endfacet
  facet normal 0 0 1
    outer loop
      vertex 20.5 -30 3.2
      vertex 22.2678 -30.7322 3.2
      vertex 3.28169 -5.023 3.2
    endloop
  endfacet
  facet normal 0 0 1
    outer loop
      vertex -2.41017 5.49464 3.2
      vertex -0.495476 5.97951 3.2
      vertex -18.2322 30.7322 3.2
    endloop
  endfacet
  facet normal 0 -0 1
    outer loop
      vertex 23.772 37.292 3.2
      vertex -25.384 34.957 3.2
      vertex 25.042 35.859 3.2
    endloop
  endfacet
  facet normal 0 -0 1
    outer loop
      vertex 21.982 37.971 3.2
      vertex -25.384 34.957 3.2
      vertex 23.772 37.292 3.2
    endloop
  endfacet
  facet normal 0 -0 1
    outer loop
      vertex -21.018 37.971 3.2
      vertex -25.384 34.957 3.2
      vertex 21.982 37.971 3.2
    endloop
  endfacet
  facet normal 0 -0 1
    outer loop
      vertex -22.918 37.74 3.2
      vertex -25.384 34.957 3.2
      vertex -21.018 37.971 3.2
    endloop
  endfacet
  facet normal 0 -0 1
    outer loop
      vertex -24.494 36.652 3.2
      vertex -25.384 34.957 3.2
      vertex -22.918 37.74 3.2
    endloop
  endfacet
  facet normal 0 0 1
    outer loop
      vertex -21.018 -37.971 3.2
      vertex -21.7678 -34.2678 3.2
      vertex -22.918 -37.74 3.2
    endloop
  endfacet
  facet normal -0 0 1
    outer loop
      vertex -21.7678 -34.2678 3.2
      vertex -22.5 -32.5 3.2
      vertex -22.918 -37.74 3.2
    endloop
  endfacet
  facet normal 0 0 1
    outer loop
      vertex -22.5 -32.5 3.2
      vertex -21.7678 -30.7322 3.2
      vertex -25.384 34.957 3.2
    endloop
  endfacet
  facet normal 0 0 1
    outer loop
      vertex -5.27684 2.85568 3.2
      vertex -4.06369 4.41434 3.2
      vertex -25.384 34.957 3.2
    endloop
  endfacet
  facet normal -0 0 1
    outer loop
      vertex -5.91817 -0.987568 3.2
      vertex -25.384 34.957 3.2
      vertex -20 -30 3.2
    endloop
  endfacet
  facet normal 0 0 1
    outer loop
      vertex 21.982 -37.971 3.2
      vertex -20 -30 3.2
      vertex -18.2322 -30.7322 3.2
    endloop
  endfacet
  facet normal 0 0 1
    outer loop
      vertex -21.7678 34.2678 3.2
      vertex -20 35 3.2
      vertex -25.384 34.957 3.2
    endloop
  endfacet
  facet normal 0 0 1
    outer loop
      vertex 21.982 -37.971 3.2
      vertex -18.2322 -30.7322 3.2
      vertex -17.5 -32.5 3.2
    endloop
  endfacet
  facet normal -0 0 1
    outer loop
      vertex 21.982 -37.971 3.2
      vertex -18.2322 -34.2678 3.2
      vertex -21.018 -37.971 3.2
    endloop
  endfacet
  facet normal 0 0 1
    outer loop
      vertex 21.982 -37.971 3.2
      vertex -17.5 -32.5 3.2
      vertex -18.2322 -34.2678 3.2
    endloop
  endfacet
  facet normal 0 0 1
    outer loop
      vertex 20.5 35 3.2
      vertex 22.2678 34.2678 3.2
      vertex 25.042 35.859 3.2
    endloop
  endfacet
  facet normal -0 -0 1
    outer loop
      vertex -22.5 32.5 3.2
      vertex -25.384 34.957 3.2
      vertex -21.7678 30.7322 3.2
    endloop
  endfacet
  facet normal -0 0 1
    outer loop
      vertex -21.7678 34.2678 3.2
      vertex -25.384 34.957 3.2
      vertex -22.5 32.5 3.2
    endloop
  endfacet
  facet normal 0 0 1
    outer loop
      vertex 22.2678 34.2678 3.2
      vertex 23 32.5 3.2
      vertex 25.5 34 3.2
    endloop
  endfacet
  facet normal 0 0 1
    outer loop
      vertex 25.042 35.859 3.2
      vertex -25.384 34.957 3.2
      vertex -20 35 3.2
    endloop
  endfacet
  facet normal 0 0 1
    outer loop
      vertex 18.7322 -30.7322 3.2
      vertex 20.5 -30 3.2
      vertex 3.28169 -5.023 3.2
    endloop
  endfacet
  facet normal -0 0 1
    outer loop
      vertex -5.27684 -2.85568 3.2
      vertex -5.91817 -0.987568 3.2
      vertex -20 -30 3.2
    endloop
  endfacet
  facet normal -0 0 1
    outer loop
      vertex -5.91817 0.987568 3.2
      vertex -25.384 34.957 3.2
      vertex -5.91817 -0.987568 3.2
    endloop
  endfacet
  facet normal -0 0 1
    outer loop
      vertex -5.27684 2.85568 3.2
      vertex -25.384 34.957 3.2
      vertex -5.91817 0.987568 3.2
    endloop
  endfacet
  facet normal 0 0 1
    outer loop
      vertex -4.06369 4.41434 3.2
      vertex -21.7678 30.7322 3.2
      vertex -25.384 34.957 3.2
    endloop
  endfacet
  facet normal 0 0 1
    outer loop
      vertex 18 32.5 3.2
      vertex 18.7322 34.2678 3.2
      vertex -20 35 3.2
    endloop
  endfacet
  facet normal -0 -0 1
    outer loop
      vertex 20.5 -35 3.2
      vertex 18.7322 -34.2678 3.2
      vertex 21.982 -37.971 3.2
    endloop
  endfacet
  facet normal 0 -0 1
    outer loop
      vertex 23 -32.5 3.2
      vertex 22.2678 -34.2678 3.2
      vertex 23.772 -37.292 3.2
    endloop
  endfacet
  facet normal 0 -0 1
    outer loop
      vertex -18.2322 30.7322 3.2
      vertex -20 30 3.2
      vertex -2.41017 5.49464 3.2
    endloop
  endfacet
  facet normal 0 -0 1
    outer loop
      vertex 4.73484 -3.68528 3.2
      vertex 3.28169 -5.023 3.2
      vertex 25.5 -34 3.2
    endloop
  endfacet
  facet normal 0 0 1
    outer loop
      vertex 18.7322 30.7322 3.2
      vertex -18.2322 30.7322 3.2
      vertex -0.495476 5.97951 3.2
    endloop
  endfacet
  facet normal 0 -0 1
    outer loop
      vertex 5.6749 -1.9482 3.2
      vertex 4.73484 -3.68528 3.2
      vertex 25.5 -34 3.2
    endloop
  endfacet
  facet normal 0 0 1
    outer loop
      vertex 25.5 34 3.2
      vertex -0.495476 5.97951 3.2
      vertex 1.47291 5.8164 3.2
    endloop
  endfacet
  facet normal 0 -0 1
    outer loop
      vertex 6 0 3.2
      vertex 5.6749 -1.9482 3.2
      vertex 25.5 -34 3.2
    endloop
  endfacet
  facet normal 0 0 1
    outer loop
      vertex 25.5 34 3.2
      vertex 1.47291 5.8164 3.2
      vertex 3.28169 5.023 3.2
    endloop
  endfacet
  facet normal 0 0 1
    outer loop
      vertex 25.5 34 3.2
      vertex 4.73484 3.68528 3.2
      vertex 25.5 -34 3.2
    endloop
  endfacet
  facet normal 0 0 1
    outer loop
      vertex 25.5 34 3.2
      vertex 3.28169 5.023 3.2
      vertex 4.73484 3.68528 3.2
    endloop
  endfacet
  facet normal 0 0 1
    outer loop
      vertex 4.73484 3.68528 3.2
      vertex 5.6749 1.9482 3.2
      vertex 25.5 -34 3.2
    endloop
  endfacet
  facet normal 0 0 1
    outer loop
      vertex 5.6749 1.9482 3.2
      vertex 6 0 3.2
      vertex 25.5 -34 3.2
    endloop
  endfacet
  facet normal 0 0 1
    outer loop
      vertex 22.2678 -34.2678 3.2
      vertex 20.5 -35 3.2
      vertex 21.982 -37.971 3.2
    endloop
  endfacet
  facet normal 0 0 1
    outer loop
      vertex 23 -32.5 3.2
      vertex 23.772 -37.292 3.2
      vertex 25.042 -35.859 3.2
    endloop
  endfacet
  facet normal 0 0 1
    outer loop
      vertex 18 -32.5 3.2
      vertex 1.47291 -5.8164 3.2
      vertex -0.495476 -5.97951 3.2
    endloop
  endfacet
  facet normal 0 0 1
    outer loop
      vertex 18.7322 -34.2678 3.2
      vertex 18 -32.5 3.2
      vertex -2.41017 -5.49464 3.2
    endloop
  endfacet
  facet normal 0 0 1
    outer loop
      vertex 18.7322 -34.2678 3.2
      vertex -4.06369 -4.41434 3.2
      vertex -20 -30 3.2
    endloop
  endfacet
  facet normal 0 0 1
    outer loop
      vertex 18.7322 -34.2678 3.2
      vertex -2.41017 -5.49464 3.2
      vertex -4.06369 -4.41434 3.2
    endloop
  endfacet
  facet normal -0 0 1
    outer loop
      vertex -4.06369 -4.41434 3.2
      vertex -5.27684 -2.85568 3.2
      vertex -20 -30 3.2
    endloop
  endfacet
  facet normal 0 0 1
    outer loop
      vertex 21.982 -37.971 3.2
      vertex 18.7322 -34.2678 3.2
      vertex -20 -30 3.2
    endloop
  endfacet
  facet normal 0 0 1
    outer loop
      vertex 18.7322 -30.7322 3.2
      vertex 3.28169 -5.023 3.2
      vertex 1.47291 -5.8164 3.2
    endloop
  endfacet
  facet normal 0 0 1
    outer loop
      vertex 18 -32.5 3.2
      vertex 18.7322 -30.7322 3.2
      vertex 1.47291 -5.8164 3.2
    endloop
  endfacet
  facet normal 0 0 1
    outer loop
      vertex 18 32.5 3.2
      vertex -17.5 32.5 3.2
      vertex -18.2322 30.7322 3.2
    endloop
  endfacet
  facet normal 0 0 1
    outer loop
      vertex 18 32.5 3.2
      vertex -20 35 3.2
      vertex -18.2322 34.2678 3.2
    endloop
  endfacet
  facet normal 0 -0 1
    outer loop
      vertex 22.2678 -34.2678 3.2
      vertex 21.982 -37.971 3.2
      vertex 23.772 -37.292 3.2
    endloop
  endfacet
  facet normal -0 0 1
    outer loop
      vertex 25.5 -34 3.2
      vertex 22.2678 -30.7322 3.2
      vertex 25.042 -35.859 3.2
    endloop
  endfacet
  facet normal 0 0 1
    outer loop
      vertex 25.5 -34 3.2
      vertex 3.28169 -5.023 3.2
      vertex 22.2678 -30.7322 3.2
    endloop
  endfacet
  facet normal 0 0 1
    outer loop
      vertex 22.2678 -30.7322 3.2
      vertex 23 -32.5 3.2
      vertex 25.042 -35.859 3.2
    endloop
  endfacet
  facet normal -0 -0 1
    outer loop
      vertex -0.495476 -5.97951 3.2
      vertex -2.41017 -5.49464 3.2
      vertex 18 -32.5 3.2
    endloop
  endfacet
  facet normal -0 0 1
    outer loop
      vertex 18 32.5 3.2
      vertex -18.2322 34.2678 3.2
      vertex -17.5 32.5 3.2
    endloop
  endfacet
  facet normal -0 0 1
    outer loop
      vertex 20.5 30 3.2
      vertex 18.7322 30.7322 3.2
      vertex -0.495476 5.97951 3.2
    endloop
  endfacet
  facet normal 0 -0 1
    outer loop
      vertex 18 32.5 3.2
      vertex -18.2322 30.7322 3.2
      vertex 18.7322 30.7322 3.2
    endloop
  endfacet
  facet normal 0 0 1
    outer loop
      vertex 22.2678 30.7322 3.2
      vertex 20.5 30 3.2
      vertex -0.495476 5.97951 3.2
    endloop
  endfacet
  facet normal 0 0 1
    outer loop
      vertex 20.5 35 3.2
      vertex -20 35 3.2
      vertex 18.7322 34.2678 3.2
    endloop
  endfacet
  facet normal 0 0 1
    outer loop
      vertex 25.042 35.859 3.2
      vertex -20 35 3.2
      vertex 20.5 35 3.2
    endloop
  endfacet
  facet normal 0 -0 1
    outer loop
      vertex 25.042 35.859 3.2
      vertex 22.2678 34.2678 3.2
      vertex 25.5 34 3.2
    endloop
  endfacet
  facet normal 0 0 1
    outer loop
      vertex 25.5 34 3.2
      vertex 22.2678 30.7322 3.2
      vertex -0.495476 5.97951 3.2
    endloop
  endfacet
  facet normal 0 0 1
    outer loop
      vertex 25.5 34 3.2
      vertex 23 32.5 3.2
      vertex 22.2678 30.7322 3.2
    endloop
  endfacet
  facet normal 0 0 1
    outer loop
      vertex -21.7678 -30.7322 3.2
      vertex -20 -30 3.2
      vertex -25.384 34.957 3.2
    endloop
  endfacet
  facet normal -0 0 1
    outer loop
      vertex -20 -35 3.2
      vertex -21.7678 -34.2678 3.2
      vertex -21.018 -37.971 3.2
    endloop
  endfacet
  facet normal 0 0 1
    outer loop
      vertex -4.06369 4.41434 3.2
      vertex -20 30 3.2
      vertex -21.7678 30.7322 3.2
    endloop
  endfacet
  facet normal 0 0 1
    outer loop
      vertex -4.06369 4.41434 3.2
      vertex -2.41017 5.49464 3.2
      vertex -20 30 3.2
    endloop
  endfacet
  facet normal -0.568123 -0.822943 0
    outer loop
      vertex -24.494 -36.652 3.2
      vertex -24.494 -36.652 0
      vertex -22.918 -37.74 0
    endloop
  endfacet
  facet normal -0.568123 -0.822943 0
    outer loop
      vertex -22.918 -37.74 3.2
      vertex -24.494 -36.652 3.2
      vertex -22.918 -37.74 0
    endloop
  endfacet
  facet normal -0.12069 -0.99269 0
    outer loop
      vertex -22.918 -37.74 3.2
      vertex -22.918 -37.74 0
      vertex -21.018 -37.971 0
    endloop
  endfacet
  facet normal -0.12069 -0.99269 0
    outer loop
      vertex -21.018 -37.971 3.2
      vertex -22.918 -37.74 3.2
      vertex -21.018 -37.971 0
    endloop
  endfacet
  facet normal 0 -1 0
    outer loop
      vertex -21.018 -37.971 3.2
      vertex -21.018 -37.971 0
      vertex 21.982 -37.971 0
    endloop
  endfacet
  facet normal 0 -1 0
    outer loop
      vertex 21.982 -37.971 3.2
      vertex -21.018 -37.971 3.2
      vertex 21.982 -37.971 0
    endloop
  endfacet
  facet normal 0.35467 -0.934992 0
    outer loop
      vertex 21.982 -37.971 3.2
      vertex 21.982 -37.971 0
      vertex 23.772 -37.292 0
    endloop
  endfacet
  facet normal 0.35467 -0.934992 0
    outer loop
      vertex 23.772 -37.292 3.2
      vertex 21.982 -37.971 3.2
      vertex 23.772 -37.292 0
    endloop
  endfacet
  facet normal 0.748388 -0.663261 0
    outer loop
      vertex 23.772 -37.292 3.2
      vertex 23.772 -37.292 0
      vertex 25.042 -35.859 0
    endloop
  endfacet
  facet normal 0.748388 -0.663261 0
    outer loop
      vertex 25.042 -35.859 3.2
      vertex 23.772 -37.292 3.2
      vertex 25.042 -35.859 0
    endloop
  endfacet
  facet normal 0.970966 -0.239216 0
    outer loop
      vertex 25.042 -35.859 3.2
      vertex 25.042 -35.859 0
      vertex 25.5 -34 0
    endloop
  endfacet
  facet normal 0.970966 -0.239216 0
    outer loop
      vertex 25.5 -34 3.2
      vertex 25.042 -35.859 3.2
      vertex 25.5 -34 0
    endloop
  endfacet
  facet normal 1 0 -0
    outer loop
      vertex 25.5 -34 3.2
      vertex 25.5 -34 0
      vertex 25.5 34 0
    endloop
  endfacet
  facet normal 1 0 0
    outer loop
      vertex 25.5 34 3.2
      vertex 25.5 -34 3.2
      vertex 25.5 34 0
    endloop
  endfacet
  facet normal 0.970966 0.239216 0
    outer loop
      vertex 25.5 34 0
      vertex 25.042 35.859 0
      vertex 25.042 35.859 3.2
    endloop
  endfacet
  facet normal 0.970966 0.239216 -0
    outer loop
      vertex 25.5 34 3.2
      vertex 25.5 34 0
      vertex 25.042 35.859 3.2
    endloop
  endfacet
  facet normal 0.748388 0.663261 0
    outer loop
      vertex 25.042 35.859 0
      vertex 23.772 37.292 0
      vertex 23.772 37.292 3.2
    endloop
  endfacet
  facet normal 0.748388 0.663261 -0
    outer loop
      vertex 25.042 35.859 3.2
      vertex 25.042 35.859 0
      vertex 23.772 37.292 3.2
    endloop
  endfacet
  facet normal 0.35467 0.934992 0
    outer loop
      vertex 21.982 37.971 0
      vertex 21.982 37.971 3.2
      vertex 23.772 37.292 0
    endloop
  endfacet
  facet normal 0.35467 0.934992 0
    outer loop
      vertex 23.772 37.292 0
      vertex 21.982 37.971 3.2
      vertex 23.772 37.292 3.2
    endloop
  endfacet
  facet normal 0 1 0
    outer loop
      vertex -21.018 37.971 0
      vertex -21.018 37.971 3.2
      vertex 21.982 37.971 0
    endloop
  endfacet
  facet normal 0 1 0
    outer loop
      vertex 21.982 37.971 0
      vertex -21.018 37.971 3.2
      vertex 21.982 37.971 3.2
    endloop
  endfacet
  facet normal -0.12069 0.99269 0
    outer loop
      vertex -22.918 37.74 0
      vertex -22.918 37.74 3.2
      vertex -21.018 37.971 0
    endloop
  endfacet
  facet normal -0.12069 0.99269 0
    outer loop
      vertex -21.018 37.971 0
      vertex -22.918 37.74 3.2
      vertex -21.018 37.971 3.2
    endloop
  endfacet
  facet normal -0.568123 0.822943 0
    outer loop
      vertex -24.494 36.652 0
      vertex -24.494 36.652 3.2
      vertex -22.918 37.74 0
    endloop
  endfacet
  facet normal -0.568123 0.822943 0
    outer loop
      vertex -22.918 37.74 0
      vertex -24.494 36.652 3.2
      vertex -22.918 37.74 3.2
    endloop
  endfacet
  facet normal -0.885371 0.464885 0
    outer loop
      vertex -25.384 34.957 0
      vertex -25.384 34.957 3.2
      vertex -24.494 36.652 0
    endloop
  endfacet
  facet normal -0.885371 0.464885 0
    outer loop
      vertex -24.494 36.652 0
      vertex -25.384 34.957 3.2
      vertex -24.494 36.652 3.2
    endloop
  endfacet
  facet normal 0.92388 0.382683 0
    outer loop
      vertex -22.5 -32.5 3.2
      vertex -21.7678 -34.2678 3.2
      vertex -21.7678 -34.2678 0
    endloop
  endfacet
  facet normal 0.92388 0.382683 0
    outer loop
      vertex -22.5 -32.5 0
      vertex -22.5 -32.5 3.2
      vertex -21.7678 -34.2678 0
    endloop
  endfacet
  facet normal 0.92388 -0.382683 0
    outer loop
      vertex -21.7678 -30.7322 0
      vertex -21.7678 -30.7322 3.2
      vertex -22.5 -32.5 3.2
    endloop
  endfacet
  facet normal 0.92388 -0.382683 0
    outer loop
      vertex -22.5 -32.5 0
      vertex -21.7678 -30.7322 0
      vertex -22.5 -32.5 3.2
    endloop
  endfacet
  facet normal 0.382683 -0.92388 0
    outer loop
      vertex -20 -30 0
      vertex -20 -30 3.2
      vertex -21.7678 -30.7322 3.2
    endloop
  endfacet
  facet normal 0.382683 -0.92388 0
    outer loop
      vertex -21.7678 -30.7322 0
      vertex -20 -30 0
      vertex -21.7678 -30.7322 3.2
    endloop
  endfacet
  facet normal -0.382683 -0.92388 -0
    outer loop
      vertex -18.2322 -30.7322 0
      vertex -18.2322 -30.7322 3.2
      vertex -20 -30 3.2
    endloop
  endfacet
  facet normal -0.382683 -0.92388 -0
    outer loop
      vertex -20 -30 0
      vertex -18.2322 -30.7322 0
      vertex -20 -30 3.2
    endloop
  endfacet
  facet normal -0.92388 -0.382683 0
    outer loop
      vertex -17.5 -32.5 3.2
      vertex -18.2322 -30.7322 3.2
      vertex -17.5 -32.5 0
    endloop
  endfacet
  facet normal -0.92388 -0.382683 0
    outer loop
      vertex -17.5 -32.5 0
      vertex -18.2322 -30.7322 3.2
      vertex -18.2322 -30.7322 0
    endloop
  endfacet
  facet normal -0.92388 0.382683 0
    outer loop
      vertex -17.5 -32.5 3.2
      vertex -17.5 -32.5 0
      vertex -18.2322 -34.2678 3.2
    endloop
  endfacet
  facet normal -0.92388 0.382683 0
    outer loop
      vertex -18.2322 -34.2678 3.2
      vertex -17.5 -32.5 0
      vertex -18.2322 -34.2678 0
    endloop
  endfacet
  facet normal -0.382683 0.92388 0
    outer loop
      vertex -18.2322 -34.2678 3.2
      vertex -18.2322 -34.2678 0
      vertex -20 -35 3.2
    endloop
  endfacet
  facet normal -0.382683 0.92388 0
    outer loop
      vertex -20 -35 3.2
      vertex -18.2322 -34.2678 0
      vertex -20 -35 0
    endloop
  endfacet
  facet normal 0.382683 0.92388 -0
    outer loop
      vertex -20 -35 3.2
      vertex -20 -35 0
      vertex -21.7678 -34.2678 3.2
    endloop
  endfacet
  facet normal 0.382683 0.92388 -0
    outer loop
      vertex -21.7678 -34.2678 3.2
      vertex -20 -35 0
      vertex -21.7678 -34.2678 0
    endloop
  endfacet
  facet normal 0.92388 0.382683 0
    outer loop
      vertex -22.5 32.5 3.2
      vertex -21.7678 30.7322 3.2
      vertex -21.7678 30.7322 0
    endloop
  endfacet
  facet normal 0.92388 0.382683 0
    outer loop
      vertex -22.5 32.5 0
      vertex -22.5 32.5 3.2
      vertex -21.7678 30.7322 0
    endloop
  endfacet
  facet normal 0.92388 -0.382683 0
    outer loop
      vertex -21.7678 34.2678 0
      vertex -21.7678 34.2678 3.2
      vertex -22.5 32.5 3.2
    endloop
  endfacet
  facet normal 0.92388 -0.382683 0
    outer loop
      vertex -22.5 32.5 0
      vertex -21.7678 34.2678 0
      vertex -22.5 32.5 3.2
    endloop
  endfacet
  facet normal 0.382683 -0.92388 0
    outer loop
      vertex -20 35 0
      vertex -20 35 3.2
      vertex -21.7678 34.2678 3.2
    endloop
  endfacet
  facet normal 0.382683 -0.92388 0
    outer loop
      vertex -21.7678 34.2678 0
      vertex -20 35 0
      vertex -21.7678 34.2678 3.2
    endloop
  endfacet
  facet normal -0.382683 -0.92388 -0
    outer loop
      vertex -18.2322 34.2678 0
      vertex -18.2322 34.2678 3.2
      vertex -20 35 3.2
    endloop
  endfacet
  facet normal -0.382683 -0.92388 -0
    outer loop
      vertex -20 35 0
      vertex -18.2322 34.2678 0
      vertex -20 35 3.2
    endloop
  endfacet
  facet normal -0.92388 -0.382683 0
    outer loop
      vertex -17.5 32.5 3.2
      vertex -18.2322 34.2678 3.2
      vertex -17.5 32.5 0
    endloop
  endfacet
  facet normal -0.92388 -0.382683 0
    outer loop
      vertex -17.5 32.5 0
      vertex -18.2322 34.2678 3.2
      vertex -18.2322 34.2678 0
    endloop
  endfacet
  facet normal -0.92388 0.382683 0
    outer loop
      vertex -17.5 32.5 3.2
      vertex -17.5 32.5 0
      vertex -18.2322 30.7322 3.2
    endloop
  endfacet
  facet normal -0.92388 0.382683 0
    outer loop
      vertex -18.2322 30.7322 3.2
      vertex -17.5 32.5 0
      vertex -18.2322 30.7322 0
    endloop
  endfacet
  facet normal -0.382683 0.92388 0
    outer loop
      vertex -18.2322 30.7322 3.2
      vertex -18.2322 30.7322 0
      vertex -20 30 3.2
    endloop
  endfacet
  facet normal -0.382683 0.92388 0
    outer loop
      vertex -20 30 3.2
      vertex -18.2322 30.7322 0
      vertex -20 30 0
    endloop
  endfacet
  facet normal 0.382683 0.92388 -0
    outer loop
      vertex -20 30 3.2
      vertex -20 30 0
      vertex -21.7678 30.7322 3.2
    endloop
  endfacet
  facet normal 0.382683 0.92388 -0
    outer loop
      vertex -21.7678 30.7322 3.2
      vertex -20 30 0
      vertex -21.7678 30.7322 0
    endloop
  endfacet
  facet normal 0.92388 0.382683 0
    outer loop
      vertex 18 -32.5 3.2
      vertex 18.7322 -34.2678 3.2
      vertex 18.7322 -34.2678 0
    endloop
  endfacet
  facet normal 0.92388 0.382683 0
    outer loop
      vertex 18 -32.5 0
      vertex 18 -32.5 3.2
      vertex 18.7322 -34.2678 0
    endloop
  endfacet
  facet normal 0.92388 -0.382683 0
    outer loop
      vertex 18.7322 -30.7322 0
      vertex 18.7322 -30.7322 3.2
      vertex 18 -32.5 3.2
    endloop
  endfacet
  facet normal 0.92388 -0.382683 0
    outer loop
      vertex 18 -32.5 0
      vertex 18.7322 -30.7322 0
      vertex 18 -32.5 3.2
    endloop
  endfacet
  facet normal 0.382683 -0.92388 0
    outer loop
      vertex 20.5 -30 0
      vertex 20.5 -30 3.2
      vertex 18.7322 -30.7322 3.2
    endloop
  endfacet
  facet normal 0.382683 -0.92388 0
    outer loop
      vertex 18.7322 -30.7322 0
      vertex 20.5 -30 0
      vertex 18.7322 -30.7322 3.2
    endloop
  endfacet
  facet normal -0.382683 -0.92388 -0
    outer loop
      vertex 22.2678 -30.7322 0
      vertex 22.2678 -30.7322 3.2
      vertex 20.5 -30 3.2
    endloop
  endfacet
  facet normal -0.382683 -0.92388 -0
    outer loop
      vertex 20.5 -30 0
      vertex 22.2678 -30.7322 0
      vertex 20.5 -30 3.2
    endloop
  endfacet
  facet normal -0.92388 -0.382683 0
    outer loop
      vertex 23 -32.5 3.2
      vertex 22.2678 -30.7322 3.2
      vertex 23 -32.5 0
    endloop
  endfacet
  facet normal -0.92388 -0.382683 0
    outer loop
      vertex 23 -32.5 0
      vertex 22.2678 -30.7322 3.2
      vertex 22.2678 -30.7322 0
    endloop
  endfacet
  facet normal -0.92388 0.382683 0
    outer loop
      vertex 23 -32.5 3.2
      vertex 23 -32.5 0
      vertex 22.2678 -34.2678 3.2
    endloop
  endfacet
  facet normal -0.92388 0.382683 0
    outer loop
      vertex 22.2678 -34.2678 3.2
      vertex 23 -32.5 0
      vertex 22.2678 -34.2678 0
    endloop
  endfacet
  facet normal -0.382683 0.92388 0
    outer loop
      vertex 22.2678 -34.2678 3.2
      vertex 22.2678 -34.2678 0
      vertex 20.5 -35 3.2
    endloop
  endfacet
  facet normal -0.382683 0.92388 0
    outer loop
      vertex 20.5 -35 3.2
      vertex 22.2678 -34.2678 0
      vertex 20.5 -35 0
    endloop
  endfacet
  facet normal 0.382683 0.92388 -0
    outer loop
      vertex 20.5 -35 3.2
      vertex 20.5 -35 0
      vertex 18.7322 -34.2678 3.2
    endloop
  endfacet
  facet normal 0.382683 0.92388 -0
    outer loop
      vertex 18.7322 -34.2678 3.2
      vertex 20.5 -35 0
      vertex 18.7322 -34.2678 0
    endloop
  endfacet
  facet normal 0.92388 0.382683 0
    outer loop
      vertex 18 32.5 3.2
      vertex 18.7322 30.7322 3.2
      vertex 18.7322 30.7322 0
    endloop
  endfacet
  facet normal 0.92388 0.382683 0
    outer loop
      vertex 18 32.5 0
      vertex 18 32.5 3.2
      vertex 18.7322 30.7322 0
    endloop
  endfacet
  facet normal 0.92388 -0.382683 0
    outer loop
      vertex 18.7322 34.2678 0
      vertex 18.7322 34.2678 3.2
      vertex 18 32.5 3.2
    endloop
  endfacet
  facet normal 0.92388 -0.382683 0
    outer loop
      vertex 18 32.5 0
      vertex 18.7322 34.2678 0
      vertex 18 32.5 3.2
    endloop
  endfacet
  facet normal 0.382683 -0.92388 0
    outer loop
      vertex 20.5 35 0
      vertex 20.5 35 3.2
      vertex 18.7322 34.2678 3.2
    endloop
  endfacet
  facet normal 0.382683 -0.92388 0
    outer loop
      vertex 18.7322 34.2678 0
      vertex 20.5 35 0
      vertex 18.7322 34.2678 3.2
    endloop
  endfacet
  facet normal -0.382683 -0.92388 -0
    outer loop
      vertex 22.2678 34.2678 0
      vertex 22.2678 34.2678 3.2
      vertex 20.5 35 3.2
    endloop
  endfacet
  facet normal -0.382683 -0.92388 -0
    outer loop
      vertex 20.5 35 0
      vertex 22.2678 34.2678 0
      vertex 20.5 35 3.2
    endloop
  endfacet
  facet normal -0.92388 -0.382683 0
    outer loop
      vertex 23 32.5 3.2
      vertex 22.2678 34.2678 3.2
      vertex 23 32.5 0
    endloop
  endfacet
  facet normal -0.92388 -0.382683 0
    outer loop
      vertex 23 32.5 0
      vertex 22.2678 34.2678 3.2
      vertex 22.2678 34.2678 0
    endloop
  endfacet
  facet normal -0.92388 0.382683 0
    outer loop
      vertex 23 32.5 3.2
      vertex 23 32.5 0
      vertex 22.2678 30.7322 3.2
    endloop
  endfacet
  facet normal -0.92388 0.382683 0
    outer loop
      vertex 22.2678 30.7322 3.2
      vertex 23 32.5 0
      vertex 22.2678 30.7322 0
    endloop
  endfacet
  facet normal -0.382683 0.92388 0
    outer loop
      vertex 22.2678 30.7322 3.2
      vertex 22.2678 30.7322 0
      vertex 20.5 30 3.2
    endloop
  endfacet
  facet normal -0.382683 0.92388 0
    outer loop
      vertex 20.5 30 3.2
      vertex 22.2678 30.7322 0
      vertex 20.5 30 0
    endloop
  endfacet
  facet normal 0.382683 0.92388 -0
    outer loop
      vertex 20.5 30 3.2
      vertex 20.5 30 0
      vertex 18.7322 30.7322 3.2
    endloop
  endfacet
  facet normal 0.382683 0.92388 -0
    outer loop
      vertex 18.7322 30.7322 3.2
      vertex 20.5 30 0
      vertex 18.7322 30.7322 0
    endloop
  endfacet
  facet normal -1 -0 -0
    outer loop
      vertex -5.91817 -0.987568 3.2
      vertex -5.91817 -0.987568 28
      vertex -5.91817 0.987568 3.2
    endloop
  endfacet
  facet normal -1 0 0
    outer loop
      vertex -5.91817 0.987568 3.2
      vertex -5.91817 -0.987568 28
      vertex -5.91817 0.987568 28
    endloop
  endfacet
  facet normal -0.945817 -0.324699 -0
    outer loop
      vertex -5.91817 -0.987568 3.2
      vertex -5.27684 -2.85568 3.2
      vertex -5.91817 -0.987568 28
    endloop
  endfacet
  facet normal -0.945817 -0.324699 0
    outer loop
      vertex -5.91817 -0.987568 28
      vertex -5.27684 -2.85568 3.2
      vertex -5.27684 -2.85568 28
    endloop
  endfacet
  facet normal -0.78914 -0.614213 -0
    outer loop
      vertex -5.27684 -2.85568 3.2
      vertex -4.06369 -4.41434 3.2
      vertex -5.27684 -2.85568 28
    endloop
  endfacet
  facet normal -0.78914 -0.614213 0
    outer loop
      vertex -5.27684 -2.85568 28
      vertex -4.06369 -4.41434 3.2
      vertex -4.06369 -4.41434 28
    endloop
  endfacet
  facet normal -0.546949 -0.837166 0
    outer loop
      vertex -4.06369 -4.41434 28
      vertex -4.06369 -4.41434 3.2
      vertex -2.41017 -5.49464 3.2
    endloop
  endfacet
  facet normal -0.546949 -0.837166 0
    outer loop
      vertex -2.41017 -5.49464 28
      vertex -4.06369 -4.41434 28
      vertex -2.41017 -5.49464 3.2
    endloop
  endfacet
  facet normal -0.245485 -0.9694 0
    outer loop
      vertex -2.41017 -5.49464 28
      vertex -2.41017 -5.49464 3.2
      vertex -0.495476 -5.97951 3.2
    endloop
  endfacet
  facet normal -0.245485 -0.9694 0
    outer loop
      vertex -0.495476 -5.97951 28
      vertex -2.41017 -5.49464 28
      vertex -0.495476 -5.97951 3.2
    endloop
  endfacet
  facet normal 0.0825792 -0.996585 0
    outer loop
      vertex -0.495476 -5.97951 28
      vertex -0.495476 -5.97951 3.2
      vertex 1.47291 -5.8164 3.2
    endloop
  endfacet
  facet normal 0.0825792 -0.996585 0
    outer loop
      vertex 1.47291 -5.8164 28
      vertex -0.495476 -5.97951 28
      vertex 1.47291 -5.8164 3.2
    endloop
  endfacet
  facet normal 0.401696 -0.915773 0
    outer loop
      vertex 1.47291 -5.8164 28
      vertex 1.47291 -5.8164 3.2
      vertex 3.28169 -5.023 3.2
    endloop
  endfacet
  facet normal 0.401696 -0.915773 0
    outer loop
      vertex 3.28169 -5.023 28
      vertex 1.47291 -5.8164 28
      vertex 3.28169 -5.023 3.2
    endloop
  endfacet
  facet normal 0.677282 -0.735724 0
    outer loop
      vertex 3.28169 -5.023 28
      vertex 3.28169 -5.023 3.2
      vertex 4.73484 -3.68528 3.2
    endloop
  endfacet
  facet normal 0.677282 -0.735724 0
    outer loop
      vertex 4.73484 -3.68528 28
      vertex 3.28169 -5.023 28
      vertex 4.73484 -3.68528 3.2
    endloop
  endfacet
  facet normal 0.879474 -0.475947 0
    outer loop
      vertex 4.73484 -3.68528 28
      vertex 4.73484 -3.68528 3.2
      vertex 5.6749 -1.9482 3.2
    endloop
  endfacet
  facet normal 0.879474 -0.475947 0
    outer loop
      vertex 5.6749 -1.9482 28
      vertex 4.73484 -3.68528 28
      vertex 5.6749 -1.9482 3.2
    endloop
  endfacet
  facet normal 0.986361 -0.164595 0
    outer loop
      vertex 5.6749 -1.9482 28
      vertex 5.6749 -1.9482 3.2
      vertex 6 0 3.2
    endloop
  endfacet
  facet normal 0.986361 -0.164595 0
    outer loop
      vertex 6 0 28
      vertex 5.6749 -1.9482 28
      vertex 6 0 3.2
    endloop
  endfacet
  facet normal 0.986361 0.164595 0
    outer loop
      vertex 6 0 3.2
      vertex 5.6749 1.9482 3.2
      vertex 5.6749 1.9482 28
    endloop
  endfacet
  facet normal 0.986361 0.164595 -0
    outer loop
      vertex 6 0 28
      vertex 6 0 3.2
      vertex 5.6749 1.9482 28
    endloop
  endfacet
  facet normal 0.879474 0.475947 0
    outer loop
      vertex 5.6749 1.9482 3.2
      vertex 4.73484 3.68528 3.2
      vertex 4.73484 3.68528 28
    endloop
  endfacet
  facet normal 0.879474 0.475947 -0
    outer loop
      vertex 5.6749 1.9482 28
      vertex 5.6749 1.9482 3.2
      vertex 4.73484 3.68528 28
    endloop
  endfacet
  facet normal 0.677282 0.735724 0
    outer loop
      vertex 3.28169 5.023 3.2
      vertex 3.28169 5.023 28
      vertex 4.73484 3.68528 3.2
    endloop
  endfacet
  facet normal 0.677282 0.735724 0
    outer loop
      vertex 4.73484 3.68528 3.2
      vertex 3.28169 5.023 28
      vertex 4.73484 3.68528 28
    endloop
  endfacet
  facet normal 0.401696 0.915773 0
    outer loop
      vertex 1.47291 5.8164 3.2
      vertex 1.47291 5.8164 28
      vertex 3.28169 5.023 3.2
    endloop
  endfacet
  facet normal 0.401696 0.915773 0
    outer loop
      vertex 3.28169 5.023 3.2
      vertex 1.47291 5.8164 28
      vertex 3.28169 5.023 28
    endloop
  endfacet
  facet normal 0.0825792 0.996585 0
    outer loop
      vertex -0.495476 5.97951 3.2
      vertex -0.495476 5.97951 28
      vertex 1.47291 5.8164 3.2
    endloop
  endfacet
  facet normal 0.0825792 0.996585 0
    outer loop
      vertex 1.47291 5.8164 3.2
      vertex -0.495476 5.97951 28
      vertex 1.47291 5.8164 28
    endloop
  endfacet
  facet normal -0.245485 0.9694 0
    outer loop
      vertex -2.41017 5.49464 3.2
      vertex -2.41017 5.49464 28
      vertex -0.495476 5.97951 3.2
    endloop
  endfacet
  facet normal -0.245485 0.9694 0
    outer loop
      vertex -0.495476 5.97951 3.2
      vertex -2.41017 5.49464 28
      vertex -0.495476 5.97951 28
    endloop
  endfacet
  facet normal -0.546949 0.837166 0
    outer loop
      vertex -4.06369 4.41434 3.2
      vertex -4.06369 4.41434 28
      vertex -2.41017 5.49464 3.2
    endloop
  endfacet
  facet normal -0.546949 0.837166 0
    outer loop
      vertex -2.41017 5.49464 3.2
      vertex -4.06369 4.41434 28
      vertex -2.41017 5.49464 28
    endloop
  endfacet
  facet normal -0.78914 0.614213 0
    outer loop
      vertex -5.27684 2.85568 3.2
      vertex -5.27684 2.85568 28
      vertex -4.06369 4.41434 3.2
    endloop
  endfacet
  facet normal -0.78914 0.614213 0
    outer loop
      vertex -4.06369 4.41434 3.2
      vertex -5.27684 2.85568 28
      vertex -4.06369 4.41434 28
    endloop
  endfacet
  facet normal -0.945817 0.324699 0
    outer loop
      vertex -5.91817 0.987568 3.2
      vertex -5.91817 0.987568 28
      vertex -5.27684 2.85568 3.2
    endloop
  endfacet
  facet normal -0.945817 0.324699 0
    outer loop
      vertex -5.27684 2.85568 3.2
      vertex -5.91817 0.987568 28
      vertex -5.27684 2.85568 28
    endloop
  endfacet
  facet normal 0 -0 1
    outer loop
      vertex -5.91817 0.987568 28
      vertex -5.91817 -0.987568 28
      vertex -5.27684 -2.85568 28
    endloop
  endfacet
  facet normal 0 0 1
    outer loop
      vertex -2.41017 -5.49464 28
      vertex -5.91817 0.987568 28
      vertex -4.06369 -4.41434 28
    endloop
  endfacet
  facet normal 0 0 1
    outer loop
      vertex -4.06369 -4.41434 28
      vertex -5.91817 0.987568 28
      vertex -5.27684 -2.85568 28
    endloop
  endfacet
  facet normal 0 0 1
    outer loop
      vertex -0.495476 -5.97951 28
      vertex -5.91817 0.987568 28
      vertex -2.41017 -5.49464 28
    endloop
  endfacet
  facet normal -0 0 1
    outer loop
      vertex 1.47291 -5.8164 28
      vertex -5.91817 0.987568 28
      vertex -0.495476 -5.97951 28
    endloop
  endfacet
  facet normal -0 0 1
    outer loop
      vertex 3.28169 -5.023 28
      vertex -5.91817 0.987568 28
      vertex 1.47291 -5.8164 28
    endloop
  endfacet
  facet normal -0 -0 1
    outer loop
      vertex -1.80194 -0.867767 28
      vertex -5.91817 0.987568 28
      vertex 3.28169 -5.023 28
    endloop
  endfacet
  facet normal 0 0 1
    outer loop
      vertex -1.80194 0.867767 28
      vertex -0.445042 1.94986 28
      vertex -5.91817 0.987568 28
    endloop
  endfacet
  facet normal 0 0 1
    outer loop
      vertex -0.445042 1.94986 28
      vertex 1.24698 1.56366 28
      vertex 5.6749 1.9482 28
    endloop
  endfacet
  facet normal 0 -0 1
    outer loop
      vertex 3.28169 5.023 28
      vertex -5.91817 0.987568 28
      vertex 4.73484 3.68528 28
    endloop
  endfacet
  facet normal 0 -0 1
    outer loop
      vertex 1.47291 5.8164 28
      vertex -5.91817 0.987568 28
      vertex 3.28169 5.023 28
    endloop
  endfacet
  facet normal 0 -0 1
    outer loop
      vertex -0.495476 5.97951 28
      vertex -5.91817 0.987568 28
      vertex 1.47291 5.8164 28
    endloop
  endfacet
  facet normal 0 -0 1
    outer loop
      vertex -2.41017 5.49464 28
      vertex -5.91817 0.987568 28
      vertex -0.495476 5.97951 28
    endloop
  endfacet
  facet normal 0 -0 1
    outer loop
      vertex -4.06369 4.41434 28
      vertex -5.91817 0.987568 28
      vertex -2.41017 5.49464 28
    endloop
  endfacet
  facet normal 0 -0 1
    outer loop
      vertex -5.27684 2.85568 28
      vertex -5.91817 0.987568 28
      vertex -4.06369 4.41434 28
    endloop
  endfacet
  facet normal -0 -0 1
    outer loop
      vertex -0.445042 -1.94986 28
      vertex -1.80194 -0.867767 28
      vertex 3.28169 -5.023 28
    endloop
  endfacet
  facet normal 0 -0 1
    outer loop
      vertex 2 0 28
      vertex 1.24698 -1.56366 28
      vertex 5.6749 -1.9482 28
    endloop
  endfacet
  facet normal 0 0 1
    outer loop
      vertex 1.24698 1.56366 28
      vertex 2 0 28
      vertex 6 0 28
    endloop
  endfacet
  facet normal 0 -0 1
    outer loop
      vertex 4.73484 3.68528 28
      vertex -0.445042 1.94986 28
      vertex 5.6749 1.9482 28
    endloop
  endfacet
  facet normal 0 0 1
    outer loop
      vertex 4.73484 3.68528 28
      vertex -5.91817 0.987568 28
      vertex -0.445042 1.94986 28
    endloop
  endfacet
  facet normal 0 0 1
    outer loop
      vertex 1.24698 1.56366 28
      vertex 6 0 28
      vertex 5.6749 1.9482 28
    endloop
  endfacet
  facet normal 0 0 1
    outer loop
      vertex 6 0 28
      vertex 2 0 28
      vertex 5.6749 -1.9482 28
    endloop
  endfacet
  facet normal -0 0 1
    outer loop
      vertex 5.6749 -1.9482 28
      vertex 1.24698 -1.56366 28
      vertex 4.73484 -3.68528 28
    endloop
  endfacet
  facet normal -0 0 1
    outer loop
      vertex 4.73484 -3.68528 28
      vertex -0.445042 -1.94986 28
      vertex 3.28169 -5.023 28
    endloop
  endfacet
  facet normal 0 -0 1
    outer loop
      vertex 1.24698 -1.56366 28
      vertex -0.445042 -1.94986 28
      vertex 4.73484 -3.68528 28
    endloop
  endfacet
  facet normal 0 0 1
    outer loop
      vertex -1.80194 -0.867767 28
      vertex -1.80194 0.867767 28
      vertex -5.91817 0.987568 28
    endloop
  endfacet
  facet normal 1 0 0
    outer loop
      vertex -1.80194 0.867767 14
      vertex -1.80194 0.867767 28
      vertex -1.80194 -0.867767 28
    endloop
  endfacet
  facet normal 1 0 0
    outer loop
      vertex -1.80194 -0.867767 14
      vertex -1.80194 0.867767 14
      vertex -1.80194 -0.867767 28
    endloop
  endfacet
  facet normal 0.62349 0.781831 -0
    outer loop
      vertex -0.445042 -1.94986 28
      vertex -0.445042 -1.94986 14
      vertex -1.80194 -0.867767 28
    endloop
  endfacet
  facet normal 0.62349 0.781831 -0
    outer loop
      vertex -1.80194 -0.867767 28
      vertex -0.445042 -1.94986 14
      vertex -1.80194 -0.867767 14
    endloop
  endfacet
  facet normal -0.222521 0.974928 0
    outer loop
      vertex 1.24698 -1.56366 28
      vertex 1.24698 -1.56366 14
      vertex -0.445042 -1.94986 28
    endloop
  endfacet
  facet normal -0.222521 0.974928 0
    outer loop
      vertex -0.445042 -1.94986 28
      vertex 1.24698 -1.56366 14
      vertex -0.445042 -1.94986 14
    endloop
  endfacet
  facet normal -0.900969 0.433884 0
    outer loop
      vertex 2 0 28
      vertex 2 0 14
      vertex 1.24698 -1.56366 28
    endloop
  endfacet
  facet normal -0.900969 0.433884 0
    outer loop
      vertex 1.24698 -1.56366 28
      vertex 2 0 14
      vertex 1.24698 -1.56366 14
    endloop
  endfacet
  facet normal -0.900969 -0.433884 0
    outer loop
      vertex 2 0 28
      vertex 1.24698 1.56366 28
      vertex 2 0 14
    endloop
  endfacet
  facet normal -0.900969 -0.433884 0
    outer loop
      vertex 2 0 14
      vertex 1.24698 1.56366 28
      vertex 1.24698 1.56366 14
    endloop
  endfacet
  facet normal -0.222521 -0.974928 -0
    outer loop
      vertex 1.24698 1.56366 14
      vertex 1.24698 1.56366 28
      vertex -0.445042 1.94986 28
    endloop
  endfacet
  facet normal -0.222521 -0.974928 -0
    outer loop
      vertex -0.445042 1.94986 14
      vertex 1.24698 1.56366 14
      vertex -0.445042 1.94986 28
    endloop
  endfacet
  facet normal 0.62349 -0.781831 0
    outer loop
      vertex -0.445042 1.94986 14
      vertex -0.445042 1.94986 28
      vertex -1.80194 0.867767 28
    endloop
  endfacet
  facet normal 0.62349 -0.781831 0
    outer loop
      vertex -1.80194 0.867767 14
      vertex -0.445042 1.94986 14
      vertex -1.80194 0.867767 28
    endloop
  endfacet
  facet normal 0 0 1
    outer loop
      vertex -0.445042 -1.94986 14
      vertex 1.24698 -1.56366 14
      vertex 2 0 14
    endloop
  endfacet
  facet normal 0 -0 1
    outer loop
      vertex -0.445042 1.94986 14
      vertex -0.445042 -1.94986 14
      vertex 1.24698 1.56366 14
    endloop
  endfacet
  facet normal 0 -0 1
    outer loop
      vertex 1.24698 1.56366 14
      vertex -0.445042 -1.94986 14
      vertex 2 0 14
    endloop
  endfacet
  facet normal 0 0 1
    outer loop
      vertex -1.80194 0.867767 14
      vertex -0.445042 -1.94986 14
      vertex -0.445042 1.94986 14
    endloop
  endfacet
  facet normal 0 0 1
    outer loop
      vertex -1.80194 -0.867767 14
      vertex -0.445042 -1.94986 14
      vertex -1.80194 0.867767 14
    endloop
  endfacet
endsolid OpenSCAD_Model
